<svg width="24" height="24" viewBox="0 0 24 24" fill="currentColor" xmlns="http://www.w3.org/2000/svg">
  <path d="M5.6375 18.3766C4.85417 17.5932 4.25 16.6807 3.825 15.6391C3.4 14.5974 3.1875 13.5516 3.1875 12.5016C3.1875 11.2349 3.4125 10.0724 3.8625 9.01406C4.3125 7.95573 4.97083 7.00156 5.8375 6.15156C6.50417 5.46823 7.32917 4.91823 8.3125 4.50156C9.29583 4.0849 10.4167 3.76823 11.675 3.55156C12.9333 3.3349 14.3167 3.2099 15.825 3.17656C17.3333 3.14323 18.9292 3.17656 20.6125 3.27656C20.7625 4.9599 20.8292 6.5474 20.8125 8.03906C20.7958 9.53073 20.6833 10.9141 20.475 12.1891C20.2667 13.4641 19.9458 14.6099 19.5125 15.6266C19.0792 16.6432 18.5208 17.5016 17.8375 18.2016C16.9708 19.0682 16.0208 19.7266 14.9875 20.1766C13.9542 20.6266 12.8625 20.8516 11.7125 20.8516C10.4958 20.8516 9.39167 20.6557 8.4 20.2641C7.40833 19.8724 6.4875 19.2432 5.6375 18.3766ZM8.4875 18.0516C8.92083 18.3349 9.41667 18.5516 9.975 18.7016C10.5333 18.8516 11.1042 18.9266 11.6875 18.9266C12.5542 18.9266 13.4042 18.7432 14.2375 18.3766C15.0708 18.0099 15.8208 17.4849 16.4875 16.8016C16.9708 16.2849 17.3792 15.6182 17.7125 14.8016C18.0458 13.9849 18.2958 13.0641 18.4625 12.0391C18.6292 11.0141 18.7333 9.9099 18.775 8.72656C18.8167 7.54323 18.8125 6.3349 18.7625 5.10156C17.2292 5.06823 15.8458 5.08906 14.6125 5.16406C13.3792 5.23906 12.2833 5.37656 11.325 5.57656C10.3667 5.77656 9.55417 6.0349 8.8875 6.35156C8.22083 6.66823 7.67917 7.0349 7.2625 7.45156C6.5625 8.15156 6.02917 8.8974 5.6625 9.68906C5.29583 10.4807 5.1125 11.2932 5.1125 12.1266C5.1125 12.8932 5.275 13.7057 5.6 14.5641C5.925 15.4224 6.3375 16.1182 6.8375 16.6516C7.67083 15.0516 8.7 13.6141 9.925 12.3391C11.15 11.0641 12.4958 10.0349 13.9625 9.25156C12.5292 10.5182 11.3625 11.8766 10.4625 13.3266C9.5625 14.7766 8.90417 16.3516 8.4875 18.0516V18.0516Z" />
</svg>